<?xml version="1.0" standalone="no"?>
<!DOCTYPE svg PUBLIC "-//W3C//DTD SVG 20010904//EN"
 "http://www.w3.org/TR/2001/REC-SVG-20010904/DTD/svg10.dtd">
<svg version="1.0" xmlns="http://www.w3.org/2000/svg"
 width="284.367630pt" height="255.012096pt" viewBox="0 0 284.367630 255.012096"
 preserveAspectRatio="xMidYMid meet">
<metadata>
Created by potrace 1.12, written by Peter Selinger 2001-2015
</metadata>
<g transform="translate(-20.007531,276.012096) scale(0.100000,-0.100000)"
fill="#000000" stroke="none">
<path d="M783 2740 c-135 -35 -246 -101 -354 -209 -162 -162 -229 -325 -229
-555 0 -150 12 -222 55 -354 122 -365 409 -729 852 -1079 200 -159 469 -333
514 -333 48 0 310 169 519 335 477 378 773 771 877 1164 22 82 26 118 27 251
0 120 -4 170 -17 220 -42 150 -139 299 -263 403 -79 67 -217 137 -315 161 -84
21 -263 21 -349 0 -141 -33 -324 -150 -421 -269 -49 -61 -69 -77 -69 -56 0 4
-27 38 -60 74 -111 121 -247 207 -392 247 -97 27 -272 27 -375 0z m357 -151
c95 -27 184 -83 276 -174 64 -63 89 -97 119 -158 41 -86 64 -103 112 -86 22 7
36 27 66 90 82 175 282 321 477 348 197 27 386 -44 534 -200 131 -139 183
-283 173 -479 -13 -238 -111 -477 -295 -717 -195 -255 -486 -517 -820 -740
l-155 -103 -46 27 c-402 233 -851 651 -1051 978 -76 123 -147 300 -166 410 -4
22 -8 49 -10 60 -3 11 -4 70 -5 131 0 138 28 237 99 345 156 238 430 344 692
268z"/>
<path d="M1525 1493 c-32 -92 -60 -174 -63 -180 -3 -9 8 -13 36 -13 39 0 40 1
51 45 l12 46 66 -3 66 -3 15 -42 c13 -41 16 -43 52 -43 l38 0 -50 143 c-28 78
-56 158 -62 177 -12 32 -17 35 -58 38 l-45 3 -58 -168z m124 45 c29 -86 29
-88 -25 -88 -40 0 -45 2 -39 18 3 9 13 43 22 75 9 31 17 57 19 57 1 0 12 -28
23 -62z"/>
</g>
</svg>
