<?xml version="1.0" standalone="no"?>
<!DOCTYPE svg PUBLIC "-//W3C//DTD SVG 20010904//EN"
 "http://www.w3.org/TR/2001/REC-SVG-20010904/DTD/svg10.dtd">
<svg version="1.0" xmlns="http://www.w3.org/2000/svg"
 width="284.367630pt" height="320.256735pt" viewBox="0 0 284.367630 320.256735"
 preserveAspectRatio="xMidYMid meet">
<metadata>
Created by potrace 1.12, written by Peter Selinger 2001-2015
</metadata>
<g transform="translate(-45.007531,353.012096) scale(0.100000,-0.100000)"
fill="#000000" stroke="none">
<path d="M1033 3510 c-135 -35 -246 -101 -354 -209 -162 -162 -229 -325 -229
-555 0 -150 12 -222 55 -354 122 -365 409 -729 852 -1079 200 -159 469 -333
514 -333 48 0 310 169 519 335 477 378 773 771 877 1164 22 82 26 118 27 251
0 120 -4 170 -17 220 -42 150 -139 299 -263 403 -79 67 -217 137 -315 161 -84
21 -263 21 -349 0 -141 -33 -324 -150 -421 -269 -49 -61 -69 -77 -69 -56 0 4
-27 38 -60 74 -111 121 -247 207 -392 247 -97 27 -272 27 -375 0z m357 -151
c95 -27 184 -83 276 -174 64 -63 89 -97 119 -158 41 -86 64 -103 112 -86 22 7
36 27 66 90 82 175 282 321 477 348 197 27 386 -44 534 -200 131 -139 183
-283 173 -479 -13 -238 -111 -477 -295 -717 -195 -255 -486 -517 -820 -740
l-155 -103 -46 27 c-402 233 -851 651 -1051 978 -76 123 -147 300 -166 410 -4
22 -8 49 -10 60 -3 11 -4 70 -5 131 0 138 28 237 99 345 156 238 430 344 692
268z"/>
<path d="M685 1826 c-29 -44 -47 -164 -41 -266 9 -151 46 -256 130 -375 60
-84 140 -155 266 -237 l105 -68 -50 4 c-49 4 -85 -6 -85 -24 0 -13 56 -28 133
-36 57 -5 71 -4 87 11 22 20 27 70 9 81 -16 10 -65 122 -73 167 -7 39 -20 48
-30 21 -10 -25 -7 -65 8 -121 8 -29 12 -53 10 -53 -14 0 -183 118 -224 156
-97 90 -194 242 -227 353 -25 83 -23 257 4 338 17 51 18 63 7 67 -8 3 -21 -5
-29 -18z"/>
<path d="M3210 1717 c0 -148 -104 -344 -283 -534 -94 -99 -261 -233 -290 -233
-2 0 1 18 6 39 8 29 8 47 -1 66 -12 27 -13 25 -63 -71 -43 -85 -48 -102 -39
-123 12 -26 24 -26 177 0 56 10 62 13 53 29 -6 10 -20 20 -32 22 -18 2 -11 10
38 42 81 53 270 246 325 331 76 117 137 237 154 300 27 105 16 195 -25 195
-18 0 -20 -6 -20 -63z"/>
<path d="M1329 663 c-6 -16 -35 -97 -64 -180 l-53 -153 38 0 c36 0 39 2 52 43
l15 42 66 3 66 3 12 -46 12 -46 80 3 80 3 15 43 14 43 66 -3 66 -3 12 -40 c10
-36 14 -40 47 -43 21 -2 37 1 37 6 0 6 -26 86 -59 178 l-58 169 -46 3 -45 3
-29 -83 c-16 -46 -45 -125 -63 -176 -18 -51 -36 -90 -40 -85 -4 4 -33 83 -65
176 l-58 167 -44 0 c-38 0 -45 -3 -54 -27z m97 -165 c5 -15 -1 -18 -40 -18
-25 0 -46 4 -46 9 0 5 10 40 22 77 l21 69 19 -60 c10 -33 21 -68 24 -77z m324
63 c11 -37 20 -71 20 -75 0 -3 -21 -6 -46 -6 -38 0 -45 3 -40 18 17 59 40 132
42 132 2 0 12 -31 24 -69z"/>
<path d="M1940 510 l0 -180 110 0 110 0 0 30 0 30 -75 0 -75 0 0 150 0 150
-35 0 -35 0 0 -180z"/>
<path d="M2220 509 l0 -181 88 4 c99 5 139 21 174 70 32 46 34 172 2 215 -35
49 -97 73 -186 73 l-78 0 0 -181z m170 106 c36 -18 54 -71 46 -129 -9 -57 -41
-87 -100 -93 l-46 -6 0 122 0 121 35 0 c20 0 49 -7 65 -15z"/>
</g>
</svg>
