<?xml version="1.0" standalone="no"?>
<!DOCTYPE svg PUBLIC "-//W3C//DTD SVG 20010904//EN"
 "http://www.w3.org/TR/2001/REC-SVG-20010904/DTD/svg10.dtd">
<svg version="1.0" xmlns="http://www.w3.org/2000/svg"
 width="344.984628pt" height="287.162184pt" viewBox="0 0 344.984628 287.162184"
 preserveAspectRatio="xMidYMid meet">
<metadata>
Created by potrace 1.12, written by Peter Selinger 2001-2015
</metadata>
<g transform="translate(-33.015372,345.686121) scale(0.100000,-0.100000)"
fill="#000000" stroke="none">
<path d="M892 3440 c-97 -35 -185 -92 -263 -170 -61 -61 -85 -95 -122 -170
-65 -131 -78 -189 -86 -370 l-6 -155 -25 45 c-30 54 -60 66 -60 23 0 -37 72
-167 94 -171 39 -8 63 7 80 51 9 25 42 72 72 106 l56 61 -31 0 c-23 0 -42 -12
-80 -50 -28 -27 -53 -50 -57 -50 -11 0 6 228 21 296 19 84 49 161 89 227 19
30 32 58 29 61 -10 10 136 143 197 179 36 21 98 48 138 59 40 12 71 27 69 33
-6 17 -60 16 -115 -5z"/>
<path d="M1333 3200 c-135 -35 -246 -101 -354 -209 -162 -162 -229 -325 -229
-555 0 -150 12 -222 55 -354 122 -365 409 -729 852 -1079 200 -159 469 -333
514 -333 48 0 310 169 519 335 477 378 773 771 877 1164 22 82 26 118 27 251
0 120 -4 170 -17 220 -42 150 -139 299 -263 403 -79 67 -217 137 -315 161 -84
21 -263 21 -349 0 -141 -33 -324 -150 -421 -269 -49 -61 -69 -77 -69 -56 0 4
-27 38 -60 74 -111 121 -247 207 -392 247 -97 27 -272 27 -375 0z m357 -151
c95 -27 184 -83 276 -174 64 -63 89 -97 119 -158 41 -86 64 -103 112 -86 22 7
36 27 66 90 82 175 282 321 477 348 197 27 386 -44 534 -200 131 -139 183
-283 173 -479 -13 -238 -111 -477 -295 -717 -195 -255 -486 -517 -820 -740
l-155 -103 -46 27 c-402 233 -851 651 -1051 978 -76 123 -147 300 -166 410 -4
22 -8 49 -10 60 -3 11 -4 70 -5 131 0 138 28 237 99 345 156 238 430 344 692
268z"/>
<path d="M3617 1424 c-21 -30 -61 -71 -88 -92 l-50 -37 30 -3 c31 -3 67 15
113 57 15 13 30 23 32 20 8 -8 -32 -209 -54 -266 -34 -92 -86 -184 -136 -241
-25 -28 -42 -52 -39 -52 4 0 -15 -18 -41 -41 -51 -42 -117 -81 -194 -112 -44
-18 -57 -21 -153 -34 -37 -4 -47 -10 -45 -22 9 -42 215 6 338 79 200 118 310
297 358 585 18 102 20 108 30 80 33 -87 62 -110 62 -47 0 41 -32 145 -51 168
-6 8 -26 14 -43 14 -26 -1 -37 -9 -69 -56z"/>
</g>
</svg>
