<?xml version="1.0" standalone="no"?>
<!DOCTYPE svg PUBLIC "-//W3C//DTD SVG 20010904//EN"
 "http://www.w3.org/TR/2001/REC-SVG-20010904/DTD/svg10.dtd">
<svg version="1.0" xmlns="http://www.w3.org/2000/svg"
 width="153.630864pt" height="36.256971pt" viewBox="0 0 153.630864 36.256971"
 preserveAspectRatio="xMidYMid meet">
<metadata>
Created by potrace 1.12, written by Peter Selinger 2001-2015
</metadata>
<g transform="translate(-64.308726,89.000000) scale(0.100000,-0.100000)"
fill="#000000" stroke="none">
<path d="M703 710 c-47 -119 -67 -180 -58 -180 7 0 24 29 37 65 l23 66 75 -3
74 -3 25 -62 c13 -35 30 -63 37 -63 8 0 -1 34 -28 103 -22 56 -53 137 -70 180
-16 42 -33 77 -36 77 -4 0 -39 -81 -79 -180z m110 58 c15 -40 27 -76 27 -80 0
-10 -120 -11 -120 -1 0 12 55 153 60 153 3 0 18 -33 33 -72z"/>
<path d="M1191 869 c-5 -13 -37 -93 -70 -178 -34 -84 -59 -156 -56 -159 9 -9
20 9 45 71 l22 57 73 0 73 0 22 -57 c24 -61 36 -80 45 -71 6 6 -121 338 -135
352 -6 6 -13 0 -19 -15z m50 -111 c16 -40 27 -74 25 -75 -2 -2 -31 -3 -64 -1
l-59 3 29 78 c17 43 33 76 36 73 3 -4 18 -38 33 -78z"/>
<path d="M1540 710 l0 -180 95 0 c57 0 95 4 95 10 0 6 -35 10 -85 10 l-85 0 0
170 c0 107 -4 170 -10 170 -6 0 -10 -67 -10 -180z"/>
<path d="M1920 709 l0 -182 78 5 c84 5 123 21 157 66 28 38 33 163 8 212 -26
51 -89 80 -175 80 l-68 0 0 -181z m166 142 c55 -25 78 -73 72 -152 -7 -98 -64
-149 -165 -149 l-53 0 0 160 0 160 53 0 c29 0 70 -9 93 -19z"/>
</g>
</svg>
