<?xml version="1.0" standalone="yes"?>
<svg xmlns="http://www.w3.org/2000/svg" width="292" height="130">
<path style="fill:#ffffff; stroke:none;" d="M0 0L0 130L292 130L292 0L0 0z"/>
<path style="fill:#373737; stroke:none;" d="M77.6667 41.3333C77.2222 41.7778 78.2778 41.7222 78.3333 41.6667C78.7778 41.2222 77.7222 41.2778 77.6667 41.3333z"/>
<path style="fill:#bcbcbc; stroke:none;" d="M119 41L120 42L119 41z"/>
<path style="fill:#000000; stroke:none;" d="M120 41L115 56C117.837 52.4854 118.626 48.1067 122 45C121.436 43.248 121.081 42.458 120 41z"/>
<path style="fill:#8d8d8d; stroke:none;" d="M121 41L122 42L121 41z"/>
<path style="fill:#828282; stroke:none;" d="M153 41L153 77C155.903 70.0813 154 59.4798 154 52C154 48.2976 154.441 44.4346 153 41z"/>
<path style="fill:#000000; stroke:none;" d="M154 41L154 77L172 77L172 75L155 75L155 53C155 49.0172 155.552 44.6987 154 41z"/>
<path style="fill:#676767; stroke:none;" d="M155 41L155 75C157.802 68.3226 156 58.2153 156 51C156 47.5814 156.328 44.1656 155 41z"/>
<path style="fill:#f6f6f6; stroke:none;" d="M156 41L156 74C157.328 70.8344 157 67.4186 157 64C157 57.0493 158.701 47.4358 156 41z"/>
<path style="fill:#a4a4a4; stroke:none;" d="M191 41L191 77C193.903 70.0813 192 59.4798 192 52C192 48.2976 192.441 44.4346 191 41z"/>
<path style="fill:#000000; stroke:none;" d="M192 41L192 77C198.353 76.9993 206.563 77.4139 211.895 73.3472C220.157 67.0456 220.306 50.7588 211.956 44.5139C206.508 40.4394 198.428 41 192 41z"/>
<path style="fill:#464646; stroke:none;" d="M203.667 41.3333C203.222 41.7777 204.278 41.7222 204.333 41.6667C204.778 41.2222 203.722 41.2778 203.667 41.3333z"/>
<path style="fill:#757575; stroke:none;" d="M205 41L206 42L205 41z"/>
<path style="fill:#a5a5a5; stroke:none;" d="M206 41L207 42L206 41z"/>
<path style="fill:#cccccc; stroke:none;" d="M76 42L77 43L76 42z"/>
<path style="fill:#000000; stroke:none;" d="M77 42L76 47L79 45L80 49C80.6473 45.8766 79.5977 43.7782 77 42z"/>
<path style="fill:#9c9c9c; stroke:none;" d="M79 42L80 43L79 42z"/>
<path style="fill:#717171; stroke:none;" d="M119 42L120 43L119 42z"/>
<path style="fill:#444444; stroke:none;" d="M121 42L122 43L121 42z"/>
<path style="fill:#2d2d2d; stroke:none;" d="M208 42L209 43L208 42z"/>
<path style="fill:#939393; stroke:none;" d="M209 42L210 43L209 42z"/>
<path style="fill:#8d8d8d; stroke:none;" d="M76 43L77 44L76 43z"/>
<path style="fill:#606060; stroke:none;" d="M79 43L80 44L79 43z"/>
<path style="fill:#373737; stroke:none;" d="M119 43L120 44L119 43z"/>
<path style="fill:#bcbcbc; stroke:none;" d="M122 43L123 44L122 43z"/>
<path style="fill:#474747; stroke:none;" d="M193 43L193 75C195.599 68.8063 194 59.6856 194 53C194 49.5814 194.328 46.1656 193 43z"/>
<path style="fill:#ececec; stroke:none;" d="M194 43L194 75L202 75C199.668 74.0155 197.543 74.0187 195 74L195 44L203 44C200.11 42.787 197.126 43.0017 194 43z"/>
<path style="fill:#a5a5a5; stroke:none;" d="M203.667 43.3333C203.222 43.7777 204.278 43.7222 204.333 43.6667C204.778 43.2222 203.722 43.2778 203.667 43.3333z"/>
<path style="fill:#6a6a6a; stroke:none;" d="M205 43L206 44L205 43z"/>
<path style="fill:#8e8e8e; stroke:none;" d="M211 43L212 44L211 43z"/>
<path style="fill:#444444; stroke:none;" d="M76 44L77 45L76 44z"/>
<path style="fill:#c9c9c9; stroke:none;" d="M80 44L81 45L80 44z"/>
<path style="fill:#9c9c9c; stroke:none;" d="M118 44L119 45L118 44z"/>
<path style="fill:#6e6e6e; stroke:none;" d="M122 44L123 45L122 44z"/>
<path style="fill:#ffffff; stroke:none;" d="M195 44L195 74C200.213 74 206.45 74.8817 210.786 71.3472C217.314 66.0269 217.047 50.4168 209.956 45.7423C205.806 43.0066 199.732 44 195 44z"/>
<path style="fill:#777777; stroke:none;" d="M208 44L209 45L208 44z"/>
<path style="fill:#4c4c4c; stroke:none;" d="M212 44L213 45L212 44z"/>
<path style="fill:#adadad; stroke:none;" d="M75 45L76 46L75 45z"/>
<path style="fill:#626262; stroke:none;" d="M77.6667 45.3333C77.2222 45.7778 78.2778 45.7222 78.3333 45.6667C78.7778 45.2222 77.7222 45.2778 77.6667 45.3333z"/>
<path style="fill:#7d7d7d; stroke:none;" d="M80 45L81 46L80 45z"/>
<path style="fill:#515151; stroke:none;" d="M118 45L119 46L118 45z"/>
<path style="fill:#7a7a7a; stroke:none;" d="M120 45L121 46L120 45z"/>
<path style="fill:#292929; stroke:none;" d="M121.667 45.3333C121.222 45.7778 122.278 45.7222 122.333 45.6667C122.778 45.2222 121.722 45.2778 121.667 45.3333z"/>
<path style="fill:#d4d4d4; stroke:none;" d="M123 45L124 46L123 45z"/>
<path style="fill:#5e5e5e; stroke:none;" d="M210 45L211 46L210 45z"/>
<path style="fill:#373737; stroke:none;" d="M213 45L214 46L213 45z"/>
<path style="fill:#606060; stroke:none;" d="M75 46L76 47L75 46z"/>
<path style="fill:#8e8e8e; stroke:none;" d="M77 46L78 47L77 46z"/>
<path style="fill:#bababa; stroke:none;" d="M78 46L79 47L78 46z"/>
<path style="fill:#444444; stroke:none;" d="M80 46L81 47L80 46z"/>
<path style="fill:#bcbcbc; stroke:none;" d="M117 46L118 47L117 46z"/>
<path style="fill:#3a3a3a; stroke:none;" d="M119 46L120 47L119 46z"/>
<path style="fill:#ffffff; stroke:none;" d="M120 46C118.525 51.4023 115.952 56.4694 115 62L126 62C125.189 56.5105 123.366 50.4516 120 46z"/>
<path style="fill:#5d5d5d; stroke:none;" d="M121 46L122 47L121 46z"/>
<path style="fill:#0d0d0d; stroke:none;" d="M122 46L123 51C123.651 48.7659 123.318 47.9261 122 46z"/>
<path style="fill:#9c9c9c; stroke:none;" d="M123 46L124 47L123 46z"/>
<path style="fill:#929292; stroke:none;" d="M211 46L212 47L211 46z"/>
<path style="fill:#3b3b3b; stroke:none;" d="M214 46L215 47L214 46z"/>
<path style="fill:#d1d1d1; stroke:none;" d="M74 47L75 48L74 47z"/>
<path style="fill:#191919; stroke:none;" d="M75.6667 47.3333C75.2222 47.7778 76.2778 47.7222 76.3333 47.6667C76.7778 47.2222 75.7222 47.2778 75.6667 47.3333z"/>
<path style="fill:#e5e5e5; stroke:none;" d="M77 47L77 49C78.6351 48.4549 78.4549 48.6351 79 47L77 47z"/>
<path style="fill:#404040; stroke:none;" d="M79 47L80 48L79 47z"/>
<path style="fill:#adadad; stroke:none;" d="M81 47L82 48L81 47z"/>
<path style="fill:#797979; stroke:none;" d="M117 47L118 48L117 47z"/>
<path style="fill:#6e6e6e; stroke:none;" d="M119 47L120 48L119 47z"/>
<path style="fill:#989898; stroke:none;" d="M121 47L122 48L121 47z"/>
<path style="fill:#515151; stroke:none;" d="M123 47L124 48L123 47z"/>
<path style="fill:#9c9c9c; stroke:none;" d="M212 47L213 48L212 47z"/>
<path style="fill:#6c6c6c; stroke:none;" d="M215 47L216 48L215 47z"/>
<path style="fill:#8d8d8d; stroke:none;" d="M74 48L75 49L74 48z"/>
<path style="fill:#000000; stroke:none;" d="M75 48C71.3031 57.5315 66.3606 67.0386 64 77C66.95 73.7217 67.4088 68.5256 70.6489 65.6034C72.4085 64.0164 74.7719 64.0421 77.0008 64.0046C86.6056 63.8432 87.3956 69.2945 91 77C91.7225 73.5095 89.9025 70.2587 88.6003 67C86.3441 61.3536 84.1881 55.6721 82 50C80.8824 54.0295 83.534 58.2203 85 62L71 62C72.9342 57.8642 75.964 52.5913 75 48z"/>
<path style="fill:#545454; stroke:none;" d="M76 48L77 49L76 48z"/>
<path style="fill:#ffffff; stroke:none;" d="M78 48C75.2576 52.3301 73.5632 57.1296 72 62L84 62C82.8537 57.1629 81.31 51.7514 78 48z"/>
<path style="fill:#7d7d7d; stroke:none;" d="M79 48L80 49L79 48z"/>
<path style="fill:#606060; stroke:none;" d="M81 48L82 49L81 48z"/>
<path style="fill:#373737; stroke:none;" d="M117 48L118 49L117 48z"/>
<path style="fill:#b1b1b1; stroke:none;" d="M119 48L120 49L119 48z"/>
<path style="fill:#bcbcbc; stroke:none;" d="M124 48L125 49L124 48z"/>
<path style="fill:#6c6c6c; stroke:none;" d="M213 48L214 49L213 48z"/>
<path style="fill:#b0b0b0; stroke:none;" d="M216 48L217 49L216 48z"/>
<path style="fill:#444444; stroke:none;" d="M74 49L75 50L74 49z"/>
<path style="fill:#9c9c9c; stroke:none;" d="M76 49L77 50L76 49z"/>
<path style="fill:#252525; stroke:none;" d="M80.6667 49.3333C80.2222 49.7778 81.2778 49.7222 81.3333 49.6667C81.7778 49.2222 80.7222 49.2778 80.6667 49.3333z"/>
<path style="fill:#d1d1d1; stroke:none;" d="M82 49L83 50L82 49z"/>
<path style="fill:#9c9c9c; stroke:none;" d="M116 49L117 50L116 49z"/>
<path style="fill:#444444; stroke:none;" d="M118 49L119 50L118 49z"/>
<path style="fill:#6e6e6e; stroke:none;" d="M122 49L123 50L122 49z"/>
<path style="fill:#797979; stroke:none;" d="M124 49L125 50L124 49z"/>
<path style="fill:#373737; stroke:none;" d="M214 49L215 50L214 49z"/>
<path style="fill:#555555; stroke:none;" d="M216 49L217 50L216 49z"/>
<path style="fill:#adadad; stroke:none;" d="M73 50L74 51L73 50z"/>
<path style="fill:#373737; stroke:none;" d="M75 50L76 51L75 50z"/>
<path style="fill:#515151; stroke:none;" d="M80 50L81 51L80 50z"/>
<path style="fill:#8d8d8d; stroke:none;" d="M82 50L83 51L82 50z"/>
<path style="fill:#515151; stroke:none;" d="M116 50L117 51L116 50z"/>
<path style="fill:#8d8d8d; stroke:none;" d="M118 50L119 51L118 50z"/>
<path style="fill:#adadad; stroke:none;" d="M122 50L123 51L122 50z"/>
<path style="fill:#373737; stroke:none;" d="M124 50L125 51L124 50z"/>
<path style="fill:#8d8d8d; stroke:none;" d="M214 50L215 51L214 50z"/>
<path style="fill:#bcbcbc; stroke:none;" d="M217 50L218 51L217 50z"/>
<path style="fill:#606060; stroke:none;" d="M73 51L74 52L73 51z"/>
<path style="fill:#797979; stroke:none;" d="M75 51L76 52L75 51z"/>
<path style="fill:#9c9c9c; stroke:none;" d="M80 51L81 52L80 51z"/>
<path style="fill:#444444; stroke:none;" d="M82 51L83 52L82 51z"/>
<path style="fill:#bcbcbc; stroke:none;" d="M115 51L116 52L115 51z"/>
<path style="fill:#444444; stroke:none;" d="M123 51L124 52L123 51z"/>
<path style="fill:#000000; stroke:none;" d="M124.333 51.6667C124.278 51.7222 124.222 52.7778 124.667 52.3333C124.722 52.2778 124.778 51.2222 124.333 51.6667z"/>
<path style="fill:#9c9c9c; stroke:none;" d="M125 51L126 52L125 51z"/>
<path style="fill:#838383; stroke:none;" d="M217 51L218 52L217 51z"/>
<path style="fill:#d4d4d4; stroke:none;" d="M72 52L73 53L72 52z"/>
<path style="fill:#bcbcbc; stroke:none;" d="M75 52L76 53L75 52z"/>
<path style="fill:#b1b1b1; stroke:none;" d="M83 52L84 53L83 52z"/>
<path style="fill:#7d7d7d; stroke:none;" d="M115 52L116 53L115 52z"/>
<path style="fill:#606060; stroke:none;" d="M117 52L118 53L117 52z"/>
<path style="fill:#7d7d7d; stroke:none;" d="M123 52L124 53L123 52z"/>
<path style="fill:#545454; stroke:none;" d="M125 52L126 53L125 52z"/>
<path style="fill:#5d5d5d; stroke:none;" d="M215 52L216 53L215 52z"/>
<path style="fill:#2d2d2d; stroke:none;" d="M217.333 52.6667C217.278 52.7223 217.222 53.7778 217.667 53.3333C217.722 53.2778 217.778 52.2222 217.333 52.6667z"/>
<path style="fill:#8d8d8d; stroke:none;" d="M72 53L73 54L72 53z"/>
<path style="fill:#515151; stroke:none;" d="M74 53L75 54L74 53z"/>
<path style="fill:#6e6e6e; stroke:none;" d="M81 53L82 54L81 53M83 53L84 54L83 53z"/>
<path style="fill:#373737; stroke:none;" d="M115 53L116 54L115 53z"/>
<path style="fill:#adadad; stroke:none;" d="M117 53L118 54L117 53z"/>
<path style="fill:#191919; stroke:none;" d="M124.667 53.3333C124.222 53.7778 125.278 53.7222 125.333 53.6667C125.778 53.2222 124.722 53.2778 124.667 53.3333z"/>
<path style="fill:#c9c9c9; stroke:none;" d="M126 53L127 54L126 53z"/>
<path style="fill:#8e8e8e; stroke:none;" d="M215 53L216 54L215 53z"/>
<path style="fill:#c1c1c1; stroke:none;" d="M218.333 53.6667C218.278 53.7223 218.222 54.7778 218.667 54.3333C218.722 54.2778 218.778 53.2222 218.333 53.6667z"/>
<path style="fill:#444444; stroke:none;" d="M72 54L73 55L72 54z"/>
<path style="fill:#9c9c9c; stroke:none;" d="M74 54L75 55L74 54z"/>
<path style="fill:#b1b1b1; stroke:none;" d="M81 54L82 55L81 54z"/>
<path style="fill:#d4d4d4; stroke:none;" d="M84 54L85 55L84 54z"/>
<path style="fill:#9c9c9c; stroke:none;" d="M114 54L115 55L114 54z"/>
<path style="fill:#444444; stroke:none;" d="M116 54L117 55L116 54z"/>
<path style="fill:#545454; stroke:none;" d="M124 54L125 55L124 54z"/>
<path style="fill:#000000; stroke:none;" d="M125 54L127 62L114 62L115 57C110.592 62.4561 108.528 70.4814 106 77C110.016 74.2595 111.305 68.64 112 64L129 64C129.695 68.64 130.984 74.2595 135 77C132.132 69.5658 130.035 60.2324 125 54z"/>
<path style="fill:#7d7d7d; stroke:none;" d="M126 54L127 55L126 54z"/>
<path style="fill:#e0e0e0; stroke:none;" d="M215 54L215 63C216.256 60.0059 216.256 56.9941 215 54z"/>
<path style="fill:#adadad; stroke:none;" d="M71 55L72 56L71 55z"/>
<path style="fill:#444444; stroke:none;" d="M82 55L83 56L82 55z"/>
<path style="fill:#8e8e8e; stroke:none;" d="M84 55L85 56L84 55z"/>
<path style="fill:#515151; stroke:none;" d="M114 55L115 56L114 55z"/>
<path style="fill:#7d7d7d; stroke:none;" d="M116 55L117 56L116 55z"/>
<path style="fill:#9c9c9c; stroke:none;" d="M124 55L125 56L124 55z"/>
<path style="fill:#3a3a3a; stroke:none;" d="M126 55L127 56L126 55z"/>
<path style="fill:#444444; stroke:none;" d="M216 55L216 62C217.059 59.4657 217.059 57.5343 216 55z"/>
<path style="fill:#828282; stroke:none;" d="M218 55L218 61C218.951 58.7148 218.951 57.2852 218 55z"/>
<path style="fill:#676767; stroke:none;" d="M71 56L72 57L71 56z"/>
<path style="fill:#6e6e6e; stroke:none;" d="M73 56L74 57L73 56z"/>
<path style="fill:#838383; stroke:none;" d="M82 56L83 57L82 56z"/>
<path style="fill:#515151; stroke:none;" d="M84 56L85 57L84 56z"/>
<path style="fill:#c4c4c4; stroke:none;" d="M113 56L114 57L113 56z"/>
<path style="fill:#191919; stroke:none;" d="M114.667 56.3333C114.222 56.7778 115.278 56.7222 115.333 56.6667C115.778 56.2222 114.722 56.2778 114.667 56.3333z"/>
<path style="fill:#c9c9c9; stroke:none;" d="M116 56L117 57L116 56z"/>
<path style="fill:#2f2f2f; stroke:none;" d="M125 56L126 57L125 56z"/>
<path style="fill:#adadad; stroke:none;" d="M127 56L128 57L127 56z"/>
<path style="fill:#d4d4d4; stroke:none;" d="M70 57L71 58L70 57z"/>
<path style="fill:#e6e6e6; stroke:none;" d="M73.3333 57.6667C73.2778 57.7222 73.2222 58.7778 73.6667 58.3333C73.7222 58.2778 73.7778 57.2222 73.3333 57.6667z"/>
<path style="fill:#bcbcbc; stroke:none;" d="M85 57L86 58L85 57z"/>
<path style="fill:#7d7d7d; stroke:none;" d="M113 57L114 58L113 57z"/>
<path style="fill:#606060; stroke:none;" d="M115 57L116 58L115 57z"/>
<path style="fill:#6e6e6e; stroke:none;" d="M125 57L126 58L125 57z"/>
<path style="fill:#606060; stroke:none;" d="M127 57L128 58L127 57z"/>
<path style="fill:#8d8d8d; stroke:none;" d="M70 58L71 59L70 58z"/>
<path style="fill:#444444; stroke:none;" d="M72 58L73 59L72 58z"/>
<path style="fill:#5d5d5d; stroke:none;" d="M83 58L84 59L83 58z"/>
<path style="fill:#6e6e6e; stroke:none;" d="M85 58L86 59L85 58z"/>
<path style="fill:#373737; stroke:none;" d="M113 58L114 59L113 58z"/>
<path style="fill:#9c9c9c; stroke:none;" d="M115 58L116 59L115 58z"/>
<path style="fill:#bababa; stroke:none;" d="M125 58L126 59L125 58z"/>
<path style="fill:#c9c9c9; stroke:none;" d="M128 58L129 59L128 58z"/>
<path style="fill:#444444; stroke:none;" d="M70 59L71 60L70 59z"/>
<path style="fill:#8d8d8d; stroke:none;" d="M72 59L73 60L72 59z"/>
<path style="fill:#9c9c9c; stroke:none;" d="M83 59L84 60L83 59z"/>
<path style="fill:#373737; stroke:none;" d="M85 59L86 60L85 59z"/>
<path style="fill:#9c9c9c; stroke:none;" d="M112 59L113 60L112 59z"/>
<path style="fill:#373737; stroke:none;" d="M114 59L115 60L114 59z"/>
<path style="fill:#444444; stroke:none;" d="M126 59L127 60L126 59z"/>
<path style="fill:#8d8d8d; stroke:none;" d="M128 59L129 60L128 59z"/>
<path style="fill:#adadad; stroke:none;" d="M69 60L70 61L69 60z"/>
<path style="fill:#2f2f2f; stroke:none;" d="M84 60L85 61L84 60z"/>
<path style="fill:#9c9c9c; stroke:none;" d="M86 60L87 61L86 60z"/>
<path style="fill:#515151; stroke:none;" d="M112 60L113 61L112 60z"/>
<path style="fill:#7d7d7d; stroke:none;" d="M114 60L115 61L114 60z"/>
<path style="fill:#838383; stroke:none;" d="M126 60L127 61L126 60z"/>
<path style="fill:#444444; stroke:none;" d="M128 60L129 61L128 60z"/>
<path style="fill:#6e6e6e; stroke:none;" d="M69 61L70 62L69 61z"/>
<path style="fill:#676767; stroke:none;" d="M71 61L72 62L71 61z"/>
<path style="fill:#6e6e6e; stroke:none;" d="M84 61L85 62L84 61z"/>
<path style="fill:#515151; stroke:none;" d="M86 61L87 62L86 61z"/>
<path style="fill:#c9c9c9; stroke:none;" d="M111 61L112 62L111 61z"/>
<path style="fill:#c4c4c4; stroke:none;" d="M114 61L115 62L114 61z"/>
<path style="fill:#c9c9c9; stroke:none;" d="M126 61L127 62L126 61z"/>
<path style="fill:#adadad; stroke:none;" d="M129 61L130 62L129 61z"/>
<path style="fill:#b1b1b1; stroke:none;" d="M218.333 61.6667C218.278 61.7223 218.222 62.7778 218.667 62.3333C218.722 62.2778 218.778 61.2222 218.333 61.6667z"/>
<path style="fill:#d4d4d4; stroke:none;" d="M68 62L69 63L68 62z"/>
<path style="fill:#c4c4c4; stroke:none;" d="M87 62L88 63L87 62z"/>
<path style="fill:#7d7d7d; stroke:none;" d="M111 62L112 63L111 62z"/>
<path style="fill:#676767; stroke:none;" d="M129 62L130 63L129 62z"/>
<path style="fill:#8d8d8d; stroke:none;" d="M68 63L69 64L68 63z"/>
<path style="fill:#7d7d7d; stroke:none;" d="M87 63L88 64L87 63z"/>
<path style="fill:#373737; stroke:none;" d="M111 63L112 64L111 63z"/>
<path style="fill:#d4d4d4; stroke:none;" d="M130 63L131 64L130 63z"/>
<path style="fill:#7f7f7f; stroke:none;" d="M215.333 63.6667C215.278 63.7222 215.222 64.7778 215.667 64.3333C215.722 64.2778 215.778 63.2222 215.333 63.6667z"/>
<path style="fill:#e5e5e5; stroke:none;" d="M218.333 63.6667C218.278 63.7223 218.222 64.7778 218.667 64.3333C218.722 64.2778 218.778 63.2222 218.333 63.6667z"/>
<path style="fill:#444444; stroke:none;" d="M68 64L69 65L68 64z"/>
<path style="fill:#878787; stroke:none;" d="M70 64L71 65L70 64z"/>
<path style="fill:#ececec; stroke:none;" d="M71 64C75.2165 65.7693 80.4589 65 85 65C80.7835 63.2307 75.5411 64 71 64z"/>
<path style="fill:#7e7e7e; stroke:none;" d="M85 64L86 65L85 64z"/>
<path style="fill:#373737; stroke:none;" d="M87 64L88 65L87 64z"/>
<path style="fill:#9c9c9c; stroke:none;" d="M110 64L111 65L110 64z"/>
<path style="fill:#373737; stroke:none;" d="M112 64L113 65L112 64z"/>
<path style="fill:#ececec; stroke:none;" d="M113 64C117.471 65.8763 123.183 65 128 65C123.529 63.1237 117.817 64 113 64z"/>
<path style="fill:#2f2f2f; stroke:none;" d="M128 64L129 65L128 64z"/>
<path style="fill:#8d8d8d; stroke:none;" d="M130 64L131 65L130 64z"/>
<path style="fill:#676767; stroke:none;" d="M217.333 64.6667C217.278 64.7223 217.222 65.7777 217.667 65.3333C217.722 65.2778 217.778 64.2222 217.333 64.6667z"/>
<path style="fill:#b1b1b1; stroke:none;" d="M67 65L68 66L67 65z"/>
<path style="fill:#c9c9c9; stroke:none;" d="M85 65L86 66L85 65z"/>
<path style="fill:#a4a4a4; stroke:none;" d="M88 65L89 66L88 65z"/>
<path style="fill:#545454; stroke:none;" d="M110 65L111 66L110 65z"/>
<path style="fill:#797979; stroke:none;" d="M112 65L113 66L112 65z"/>
<path style="fill:#6e6e6e; stroke:none;" d="M128 65L129 66L128 65z"/>
<path style="fill:#484848; stroke:none;" d="M130 65L131 66L130 65z"/>
<path style="fill:#515151; stroke:none;" d="M215 65L216 66L215 65z"/>
<path style="fill:#6e6e6e; stroke:none;" d="M67 66L68 67L67 66z"/>
<path style="fill:#606060; stroke:none;" d="M69 66L70 67L69 66M86 66L87 67L86 66M88 66L89 67L88 66z"/>
<path style="fill:#c9c9c9; stroke:none;" d="M109 66L110 67L109 66z"/>
<path style="fill:#bcbcbc; stroke:none;" d="M112 66L113 67L112 66M128 66L129 67L128 66M131 66L132 67L131 66z"/>
<path style="fill:#c9c9c9; stroke:none;" d="M214 66L215 67L214 66z"/>
<path style="fill:#9c9c9c; stroke:none;" d="M217 66L218 67L217 66z"/>
<path style="fill:#d4d4d4; stroke:none;" d="M66 67L67 68L66 67z"/>
<path style="fill:#adadad; stroke:none;" d="M69 67L70 68L69 67z"/>
<path style="fill:#a4a4a4; stroke:none;" d="M86 67L87 68L86 67z"/>
<path style="fill:#c9c9c9; stroke:none;" d="M89 67L90 68L89 67z"/>
<path style="fill:#7d7d7d; stroke:none;" d="M109 67L110 68L109 67z"/>
<path style="fill:#515151; stroke:none;" d="M111 67L112 68L111 67z"/>
<path style="fill:#484848; stroke:none;" d="M129 67L130 68L129 67z"/>
<path style="fill:#6e6e6e; stroke:none;" d="M131 67L132 68L131 67z"/>
<path style="fill:#737373; stroke:none;" d="M214 67L215 68L214 67z"/>
<path style="fill:#373737; stroke:none;" d="M216 67L217 68L216 67z"/>
<path style="fill:#8d8d8d; stroke:none;" d="M66 68L67 69L66 68z"/>
<path style="fill:#404040; stroke:none;" d="M68 68L69 69L68 68z"/>
<path style="fill:#373737; stroke:none;" d="M87 68L88 69L87 68z"/>
<path style="fill:#7d7d7d; stroke:none;" d="M89 68L90 69L89 68z"/>
<path style="fill:#373737; stroke:none;" d="M109 68L110 69L109 68z"/>
<path style="fill:#989898; stroke:none;" d="M111 68L112 69L111 68z"/>
<path style="fill:#8d8d8d; stroke:none;" d="M129 68L130 69L129 68z"/>
<path style="fill:#d4d4d4; stroke:none;" d="M132 68L133 69L132 68z"/>
<path style="fill:#cbcbcb; stroke:none;" d="M213 68L214 69L213 68z"/>
<path style="fill:#7d7d7d; stroke:none;" d="M216 68L217 69L216 68z"/>
<path style="fill:#444444; stroke:none;" d="M66 69L67 70L66 69z"/>
<path style="fill:#7d7d7d; stroke:none;" d="M68 69L69 70L68 69M87 69L88 70L87 69z"/>
<path style="fill:#444444; stroke:none;" d="M89 69L90 70L89 69z"/>
<path style="fill:#9c9c9c; stroke:none;" d="M108 69L109 70L108 69M132 69L133 70L132 69z"/>
<path style="fill:#4f4f4f; stroke:none;" d="M213 69L214 70L213 69z"/>
<path style="fill:#2f2f2f; stroke:none;" d="M215 69L216 70L215 69z"/>
<path style="fill:#bababa; stroke:none;" d="M65 70L66 71L65 70z"/>
<path style="fill:#adadad; stroke:none;" d="M90 70L91 71L90 70z"/>
<path style="fill:#5d5d5d; stroke:none;" d="M108 70L109 71L108 70z"/>
<path style="fill:#6e6e6e; stroke:none;" d="M110 70L111 71L110 70z"/>
<path style="fill:#676767; stroke:none;" d="M130 70L131 71L130 70z"/>
<path style="fill:#515151; stroke:none;" d="M132 70L133 71L132 70z"/>
<path style="fill:#6a6a6a; stroke:none;" d="M212 70L213 71L212 70z"/>
<path style="fill:#a5a5a5; stroke:none;" d="M215 70L216 71L215 70z"/>
<path style="fill:#6e6e6e; stroke:none;" d="M65 71L66 72L65 71z"/>
<path style="fill:#5d5d5d; stroke:none;" d="M67 71L68 72L67 71z"/>
<path style="fill:#515151; stroke:none;" d="M88 71L89 72L88 71z"/>
<path style="fill:#606060; stroke:none;" d="M90 71L91 72L90 71z"/>
<path style="fill:#c9c9c9; stroke:none;" d="M107 71L108 72L107 71z"/>
<path style="fill:#bababa; stroke:none;" d="M110 71L111 72L110 71z"/>
<path style="fill:#adadad; stroke:none;" d="M130 71L131 72L130 71z"/>
<path style="fill:#bcbcbc; stroke:none;" d="M133 71L134 72L133 71z"/>
<path style="fill:#6d6d6d; stroke:none;" d="M211 71L212 72L211 71z"/>
<path style="fill:#888888; stroke:none;" d="M214 71L215 72L214 71z"/>
<path style="fill:#d4d4d4; stroke:none;" d="M64 72L65 73L64 72z"/>
<path style="fill:#9c9c9c; stroke:none;" d="M67 72L68 73L67 72M88 72L89 73L88 72z"/>
<path style="fill:#d1d1d1; stroke:none;" d="M91 72L92 73L91 72z"/>
<path style="fill:#7d7d7d; stroke:none;" d="M107 72L108 73L107 72z"/>
<path style="fill:#444444; stroke:none;" d="M109 72L110 73L109 72M131 72L132 73L131 72z"/>
<path style="fill:#797979; stroke:none;" d="M133 72L134 73L133 72z"/>
<path style="fill:#cbcbcb; stroke:none;" d="M209 72L210 73L209 72z"/>
<path style="fill:#464646; stroke:none;" d="M210 72L211 73L210 72z"/>
<path style="fill:#6f6f6f; stroke:none;" d="M213 72L214 73L213 72z"/>
<path style="fill:#8d8d8d; stroke:none;" d="M64 73L65 74L64 73z"/>
<path style="fill:#373737; stroke:none;" d="M66 73L67 74L66 73M89 73L90 74L89 73z"/>
<path style="fill:#8d8d8d; stroke:none;" d="M91 73L92 74L91 73z"/>
<path style="fill:#373737; stroke:none;" d="M107 73L108 74L107 73z"/>
<path style="fill:#8d8d8d; stroke:none;" d="M109 73L110 74L109 73M131 73L132 74L131 73z"/>
<path style="fill:#373737; stroke:none;" d="M133 73L134 74L133 73z"/>
<path style="fill:#bcbcbc; stroke:none;" d="M207 73L208 74L207 73z"/>
<path style="fill:#515151; stroke:none;" d="M208 73L209 74L208 73z"/>
<path style="fill:#929292; stroke:none;" d="M212 73L213 74L212 73z"/>
<path style="fill:#444444; stroke:none;" d="M64 74L65 75L64 74z"/>
<path style="fill:#797979; stroke:none;" d="M66 74L67 75L66 74z"/>
<path style="fill:#6e6e6e; stroke:none;" d="M89 74L90 75L89 74z"/>
<path style="fill:#444444; stroke:none;" d="M91 74L92 75L91 74z"/>
<path style="fill:#9c9c9c; stroke:none;" d="M106 74L107 75L106 74z"/>
<path style="fill:#c9c9c9; stroke:none;" d="M131 74L132 75L131 74z"/>
<path style="fill:#9c9c9c; stroke:none;" d="M134 74L135 75L134 74z"/>
<path style="fill:#bfbfbf; stroke:none;" d="M156 74C160.974 76.0872 167.638 75 173 75C168.026 72.9128 161.362 74 156 74z"/>
<path style="fill:#bababa; stroke:none;" d="M202.667 74.3333C202.222 74.7778 203.278 74.7222 203.333 74.6667C203.778 74.2223 202.722 74.2778 202.667 74.3333z"/>
<path style="fill:#8c8c8c; stroke:none;" d="M204 74L205 75L204 74z"/>
<path style="fill:#555555; stroke:none;" d="M205 74L206 75L205 74z"/>
<path style="fill:#515151; stroke:none;" d="M210 74L211 75L210 74z"/>
<path style="fill:#cdcdcd; stroke:none;" d="M211 74L212 75L211 74z"/>
<path style="fill:#bcbcbc; stroke:none;" d="M63 75L64 76L63 75M66 75L67 76L66 75M89 75L90 76L89 75z"/>
<path style="fill:#bababa; stroke:none;" d="M92 75L93 76L92 75z"/>
<path style="fill:#606060; stroke:none;" d="M106 75L107 76L106 75M108 75L109 76L108 75M132 75L133 76L132 75z"/>
<path style="fill:#5d5d5d; stroke:none;" d="M134 75L135 76L134 75z"/>
<path style="fill:#474747; stroke:none;" d="M172.333 75.6667C172.278 75.7222 172.222 76.7778 172.667 76.3333C172.722 76.2777 172.778 75.2222 172.333 75.6667z"/>
<path style="fill:#6b6b6b; stroke:none;" d="M208 75L209 76L208 75z"/>
<path style="fill:#cdcdcd; stroke:none;" d="M209 75L210 76L209 75z"/>
<path style="fill:#6e6e6e; stroke:none;" d="M63 76L64 77L63 76z"/>
<path style="fill:#515151; stroke:none;" d="M65 76L66 77L65 76M90 76L91 77L90 76z"/>
<path style="fill:#6e6e6e; stroke:none;" d="M92 76L93 77L92 76z"/>
<path style="fill:#c9c9c9; stroke:none;" d="M105 76L106 77L105 76z"/>
<path style="fill:#adadad; stroke:none;" d="M108 76L109 77L108 76M132 76L133 77L132 76z"/>
<path style="fill:#c9c9c9; stroke:none;" d="M135 76L136 77L135 76z"/>
<path style="fill:#464646; stroke:none;" d="M202 76C203.248 76.6848 203.548 76.7488 205 77C203.752 76.3152 203.452 76.2512 202 76z"/>
<path style="fill:#9c9c9c; stroke:none;" d="M205 76L206 77L205 76z"/>
</svg>
